<?xml version="1.0" encoding="UTF-8" standalone="no"?>
<!DOCTYPE svg PUBLIC "-//W3C//DTD SVG 1.1//EN" "http://www.w3.org/Graphics/SVG/1.1/DTD/svg11.dtd">
<svg width="100%" height="100%" viewBox="0 0 100 6" version="1.1" xmlns="http://www.w3.org/2000/svg" xmlns:xlink="http://www.w3.org/1999/xlink" xml:space="preserve" xmlns:serif="http://www.serif.com/" style="fill-rule:evenodd;clip-rule:evenodd;stroke-linejoin:round;stroke-miterlimit:2;">
    <g transform="matrix(1,0,0,1,-0.000304,-0.0835458)">
        <g transform="matrix(1,0,0,1,-0.108696,-56.72)">
            <g transform="matrix(1,0,0,1,-159.978,-95.4865)">
                <path d="M260.062,155.156C260.078,155.156 257.521,152.29 257.51,152.29C225.777,152.29 194.044,152.29 162.31,152.29L160.087,155.27L162.469,157.942L257.529,157.942L260.062,155.156L260.062,155.156Z" style="fill:rgb(0,158,68);"/>
            </g>
        </g>
        <g transform="matrix(1,0,0,1,-0.108696,-56.72)">
            <g transform="matrix(1,0,0,1,-164.123,-95.3995)">
                <rect x="211.333" y="152.203" width="5.652" height="5.652" style="fill:rgb(166,210,147);"/>
            </g>
        </g>
    </g>
</svg>
