<?xml version="1.0" standalone="no"?>
<!DOCTYPE svg PUBLIC "-//W3C//DTD SVG 20010904//EN"
 "http://www.w3.org/TR/2001/REC-SVG-20010904/DTD/svg10.dtd">
<svg version="1.0" xmlns="http://www.w3.org/2000/svg"
 width="700.000000pt" height="700.000000pt" viewBox="0 0 700.000000 700.000000"
 preserveAspectRatio="xMidYMid meet">
<metadata>
Created by potrace 1.11, written by Peter Selinger 2001-2013
</metadata>
<g transform="translate(0.000000,700.000000) scale(0.100000,-0.100000)"
fill="#000000" stroke="none">
<path d="M3369 6996 c-2 -2 -32 -7 -67 -10 -34 -4 -104 -18 -156 -31 -407
-106 -728 -352 -963 -740 -71 -117 -162 -353 -189 -488 -2 -10 -5 -26 -8 -35
-11 -38 -29 -193 -30 -255 -1 -54 0 -53 -86 -32 -137 34 -394 43 -544 19 -420
-68 -784 -304 -1032 -670 -97 -143 -198 -360 -229 -491 -35 -146 -47 -205 -52
-256 -9 -81 -9 -345 -1 -427 55 -506 356 -984 778 -1235 36 -21 75 -44 87 -51
l21 -13 -24 -73 c-28 -81 -62 -227 -70 -297 -3 -25 -9 -73 -13 -106 -15 -133
-3 -342 30 -495 11 -52 22 -105 25 -117 11 -53 70 -206 114 -298 90 -186 200
-337 351 -479 213 -201 459 -330 734 -387 154 -32 419 -32 572 0 304 64 564
208 791 439 45 47 82 89 82 94 0 6 46 -37 103 -94 230 -234 483 -375 788 -439
81 -17 140 -22 269 -23 178 -1 231 5 355 35 179 45 367 130 510 231 90 64 277
240 331 312 16 21 34 44 39 50 17 19 91 138 128 206 48 89 101 220 132 325 25
86 30 108 41 174 3 18 8 43 10 55 17 84 22 290 12 421 -11 126 -74 409 -103
455 -3 5 5 15 17 23 13 7 52 31 88 52 317 188 573 512 699 884 23 68 56 199
67 265 3 21 8 48 11 60 3 11 6 102 8 202 4 282 -39 500 -145 737 -138 308
-358 563 -630 730 -66 40 -178 96 -235 118 -81 30 -108 39 -167 54 -224 56
-493 59 -696 8 -34 -9 -65 -13 -68 -11 -2 3 -7 29 -9 59 -18 205 -60 396 -121
542 -162 387 -423 676 -766 848 -80 40 -243 103 -293 113 -5 2 -35 8 -65 14
-30 6 -68 14 -85 17 -33 7 -340 16 -346 11z"/>
</g>
</svg>
